<?xml version="1.0" encoding="UTF-8" standalone="no"?>
<!DOCTYPE svg PUBLIC "-//W3C//DTD SVG 1.1//EN" "http://www.w3.org/Graphics/SVG/1.1/DTD/svg11.dtd">
<svg width="100%" height="100%" viewBox="0 0 1024 1024" version="1.1" xmlns="http://www.w3.org/2000/svg" xmlns:xlink="http://www.w3.org/1999/xlink" xml:space="preserve" xmlns:serif="http://www.serif.com/" style="fill-rule:evenodd;clip-rule:evenodd;stroke-linejoin:round;stroke-miterlimit:2;">
    <g id="Background" transform="matrix(1,0,0,1,284,167)">
        <path d="M197.002,38.514C197.738,46.535 196.908,56.14 199.397,48.445C200.462,45.153 199.406,41.247 206.136,29.307C227.193,-8.047 266.952,-2.14 247.688,21.646C232.51,40.387 221.124,65.859 232.844,49.869C248.394,28.655 295.492,13.778 273.885,51.708C269.254,59.836 253.26,74.717 269.292,66.092C282.658,58.901 282.246,49.784 297.688,57.076C324.79,69.873 335.389,68.452 378.622,113.386C382.308,117.218 402.203,142.991 412.551,170.48C413.714,173.567 433.963,217.009 426.755,283.547C426.393,286.883 395.978,303.574 414.436,299.108C457.996,288.569 479.39,363.434 425.212,399.142C424.899,399.348 415.667,406.198 420.127,398.303C421.887,395.187 436.187,369.874 422.346,353.628C414.874,344.858 414.792,344.872 404.333,339.883C391.913,333.958 373.734,346.179 341.32,327.854C336.941,325.378 316.066,313.576 291.384,289.625C251.459,250.883 207.252,252.558 171.618,286.627C169.403,288.744 169.255,288.531 142.673,311.709C123.226,328.666 92.861,341.921 74.587,338.225C68.139,336.921 46.473,336.924 35.87,355.688C19.403,384.83 50.034,405.109 39.479,402.571C34.349,401.338 -8.39,370.838 4.473,326.49C10.398,306.058 28.392,293.292 47.529,299.306C52.924,301.002 48.012,296.358 47.83,296.186C41.798,290.483 41.691,290.841 34.805,286.149C34.284,285.793 31.235,285.966 32.17,235.492C32.576,213.546 41.45,181.092 49.091,165.307C54.301,154.545 65.963,122.725 104.363,90.337C145.757,55.425 172.33,57.94 177.132,48.317C181.143,40.281 182.729,22.97 191.511,26.477C195.833,28.202 196.883,37.462 197.002,38.514L142.5,274.034C155.198,272.654 157.333,272.023 158.58,271.654C162.76,270.417 169.118,242.831 164.733,227.41C145.784,160.767 73.565,181.673 65.95,234.534C61.396,266.148 80.357,285.075 84.426,286.69C87.16,287.776 118.218,274.529 142.5,274.034L197.002,38.514L294.001,241.497C293.823,259.694 300.103,272.719 305.444,272.955C366.319,275.648 369.836,295.604 383.245,280.283C408.47,251.46 390.892,192.329 350.442,186.868C348.367,186.587 322.48,179.289 303.165,209.236C294.727,222.318 294.103,238.816 294.001,241.497L197.002,38.514Z" style="fill:rgb(252,244,186);fill-opacity:1;"/>
        <path d="M320,581.501C324.75,632.564 323.356,642.759 349.229,714.611C354.38,728.916 368.661,754.125 364.594,754.798C363.937,754.907 364.032,754.892 110.5,754.924C103.78,754.925 91.48,755.925 92.836,752.618C93.378,751.298 93.553,751.398 100.791,736.645C127.289,682.633 133.984,632.846 135.245,623.466C150.395,510.8 119.985,460.981 117.997,443.497C117.336,437.679 124.164,446.782 130.203,450.849C132.943,452.693 192.623,509.322 293.613,472.772C301.062,470.076 321.366,459.372 328.37,452.364C340.086,440.642 341.674,441.039 341.891,442.367C343.034,449.369 317.941,484.17 320,581.501Z" style="fill:rgb(253,245,187);fill-opacity:1;"/>
        <path d="M68.496,351.999C97.478,354.81 110.224,349.438 136.282,334.114C143.418,329.917 157.89,318.337 171.381,305.373C202.803,275.179 224.261,275.156 229.502,275.15C281.444,275.094 297.82,340.857 371.448,352.957C379.308,354.248 405.263,346.113 412.564,365.473C418.321,380.738 403.748,404.817 374.39,415.229C314.845,436.348 273.062,390.696 201.554,404.93C141.055,416.973 117.488,431.937 72.65,409.207C43.246,394.301 32.254,354.288 68.496,351.999L275.728,372.023C268.78,368.719 229.776,343.187 168.594,379.669C159.624,385.018 170.093,383.336 170.383,383.207C185.36,376.535 217.742,371.592 229.5,371.876C271.261,372.887 288.374,384.429 292.532,383.61C299.259,382.285 277.225,372.676 275.728,372.023L68.496,351.999L272.099,332.993C286.642,345.675 287.21,333.113 285.89,330.318C276.669,310.78 257.473,311.295 264.893,325.265C267.074,329.37 271.413,332.499 272.099,332.993L68.496,351.999L185.899,333.986C186.809,333.317 194.093,327.962 195.259,323.421C197.496,314.715 188.366,309.741 174.531,327.52C170.58,332.598 172.336,344.902 185.899,333.986L68.496,351.999Z" style="fill:rgb(253,245,187);fill-opacity:1;"/>
        <path d="M229.502,470.002C224.622,469.911 192.362,469.306 169.647,458.205C133.639,440.61 134.269,434.818 137.418,434.159C194.781,422.152 194.472,421.232 199.46,420.237C246.281,410.895 253.204,421.955 321.581,434.224C328.382,435.444 310.84,447.751 310.216,448.145C276.871,469.165 236.191,469.884 229.502,470.002Z" style="fill:rgb(253,245,186);fill-opacity:0.99;"/>
        <path d="M108.496,208.962C136.468,211.91 118.168,250.055 98.604,233.376C93.426,228.961 89.311,210.758 108.496,208.962Z" style="fill:rgb(251,243,184);"/>
        <path d="M353.46,237.016C344.028,235.94 342.334,237.206 338.318,228.581C329.765,210.213 363.399,199.941 365.638,221.485C366.781,232.49 354.955,236.508 353.46,237.016Z" style="fill:rgb(252,244,185);fill-opacity:0.99;"/>
        <path d="M140.444,240.065C159.81,240.626 152.638,256.801 150.885,258.829C138.106,273.619 119.455,244.657 140.444,240.065Z" style="fill:rgb(250,243,183);"/>
        <path d="M329.007,251.488C323.989,275.862 294.585,254.302 311.709,241.825C313.288,240.675 327.004,236.138 329.007,251.488Z" style="fill:rgb(252,245,182);fill-opacity:0.98;"/>
    </g>
</svg>
